<?xml version="1.0" encoding="utf-8"?>
<svg version="1.1" id="Layer_1" xmlns="http://www.w3.org/2000/svg" xmlns:xlink="http://www.w3.org/1999/xlink" x="0px" y="0px"
	 viewBox="0 0 1233.675 1724.72" enable-background="new 0 0 1233.675 1724.72" xml:space="preserve">
<g>
	<path d="M442.358,804.723c-4.479-5.577-8.568-17.594-10.109-19.837c-1.541-2.243-4.398-3.093-7.038-3.753
		c-12.108-3.026-27.53-12.125-36.882-20.347c-12.904-11.343-31.221-29.157-35.274-46.435c-4.62-19.676-19.992-38.663-29.636-56.132
		c-18.458-33.433-21.376-68.292-25.119-105.455c-0.755-7.501-4.261-6.956-2.778-10.716c2.705-6.856-4.506-2.093-5.304-4.732
		c-14.162-46.789-8.893-53.413-7.988-63.188c-7.554,0.799-13.088,5.533-19.412,8.198c-4.41,1.858-7.423,7.316-10.738,11.426
		c-28.271,35.047-41.247,26.308-59.062,36.341c-18.747,10.556-47.107,3.839-65.967-2.854c-10.762-3.819-20.55-9.047-29.594-15.996
		c-8.484-6.519-13.427-20.065-23.273-24.275c-2.124-0.908-7.206-21.9-8.196-26.285c-2.541-11.255-1.608-22.961-1.053-34.402
		c0.357-7.364-3.062-6.964,1.535-9.401c8.639-4.58,0.642-51.801-12.956-0.881c-0.566,2.121-1.714,1.766-2.117,0.475
		c-1.461-4.676-10.025-2.839-6.293-8.327c5.906-8.684,7.602-19.512,14.33-27.744c1.45-1.774,0.542-7.623-1.56-9.264
		c-4.764-3.72-10.208-34.192-10.206-35.586c0.028-17.006-18.43-23.626-0.385-53.149c12.98-21.236,48.262-25.844,54.496-25.509
		c4.064,0.219,4.639-4.454,0.659-5.18c-2.155-0.393-3.712-2.456-3.477-3.934c0.619-3.894-3.273-1.268-3.179-3.563
		c0.035-0.843,0.876-1.043,1.521-0.938c13.282,2.165,2.801-20.549,22.989-38.628c11.298-10.117,25.731-29.381,56.278-19.68
		c11.878,3.772,12.717-4.648,23.382-5.938c5.545-0.671,8.85-10.264,15.817-4.346c5.141,4.367,15.728,2.49,15.793,9.616
		c0.015,1.682,0.991,2.633,2.745,2.951c24.053,4.351,29.269-4.567,44.179,24.627c1.546,3.028,3.094,24.217,9.446,34.105
		c1.627,2.533,1.327,5.045,2.18,7.476c3.851,10.967,5.104,2.82,13.061,8.576c11.494,8.313,10.572-6.082,17.406-5.371
		c18.266,1.902-22.775,48.753,145.012-119.504C507.787,94.85,578.959,67.804,599.577,69.56c5.81,0.495,11.602,2.116,17.361-0.647
		c19.843-9.519,59.059-6.993,79.071-2.17c8.306,2.002,7.683-2.758,20.661-0.043c6.075,1.271,12.027,0.897,18.042,1.196
		c42.571,2.122,37.842,9.531,82.675,20.153c4.926,1.167,9.909,1.974,14.037,5.47c1.002,0.848,7.17-2.373,12.129,4.848
		c0.833,1.213,67.819,20.899,68.064,21.517c1.829,4.618,6.548,5.374,10.164,7.017c37.527,17.054,37.796,27.662,52.31,28.215
		c5.626,0.214,9.19,12.776,14.265,16.431c2.094,1.508,7.837,1.218,11.256,8.759c0,0,16.501,15.657,20.01,19.942
		c14.972,18.281,24.637,16.09,24.376,26.134c-0.026,0.983,0.573,1.906-0.907,2.682c-11.086,5.812,25.464,20.208,4.405,26.466
		c-3.028,0.9-2.314,3.002-1.561,3.534c3.264,2.308,2.789,7.74,7.478,8.698c0.31,0.063,0.816,0.723,0.746,0.859
		c-3.074,6.059,3.906,7.87,5.309,12.149c0,0,33.742,41.521,48.393,95.747c5.643,20.886,7.233,69.119,18.998,98.88
		c1.147,2.902,2.479,6.349,1.9,8.712c-1.45,5.917,1.228,11.419,0.463,17.124c-0.755,5.626,7.062,4.122,3.192,10.256
		c-4.999,7.923,0.838,11.035-7.387,17.132c-6.163,4.569-8.711,28.393-6.9,29.237c1.114,0.519,2.514,0.081,2.883-0.834
		c1.437-3.56,4.886-4.333,7.691-6.012c-1.113,13.159-11.421,9.788-11.776,14.626c-3.841,52.292,37.689,79.675,72.476,156.26
		c11.971,26.352,0.4,50.344-19.934,58.216c-18.276,7.075-34.99,8.967-41.639,23.801c-4.169,9.302-5.451,19.686-1.209,29.737
		c2.107,4.992-0.461,9.266-1.387,13.873c-1.676,8.335-12.596,8.193-12.332,12.113c0.37,5.484-13.444,9.406-18.267,7.715
		c-6.854-2.403-11.058,5.521-16.759,3.298c-3.728-1.453-4.15,3.146-2.239,4.389c5.711,3.717,9.524-4.493,20.875,11.017
		c1.024,1.399,5.97,12.652,5.01,13.697c-4.7,5.116,3.558,21.698-13.728,27.005c-19.263,5.914-21.791,22.675-21.908,40.422
		c-0.148,22.524-1.318,45.275-19.319,61.138c-16.283,14.349-38.576,20.577-60.017,19.332c-16.351-0.949-33.221-1.446-49.322-4.932
		c-24.096-5.218-45.143-16.801-66.938-27.749c-12.745-6.402-27.959-13.709-41.575-5.477c-21.304,12.88-30.054,47.003-37.116,68.707
		c-14.33,44.039-53.549,126.726-40.971,130.509c12.664,3.809,23.682,11.035,35.173,17.222
		c76.197,41.021,100.455,35.153,165.986,184.228c3.939,8.96,61.657,138.976,88.887,213.217c15.455,42.14,19.55,38.98,7.216,38.98
		c-931.502,0-853.869,2.977-853.568-6.109c0.234-7.072,20.871-261.456,62.291-317.412c125.4-169.411,102.915-188.916,121.981-240.27
		c4.557-12.273,33.345-51.888,38.853-75.072c8.077-33.994,16.254-67.982,22.867-102.3
		C446.315,890.046,465.596,833.659,442.358,804.723z"/>
</g>
</svg>
