<?xml version="1.0" encoding="utf-8"?>

<!DOCTYPE svg PUBLIC "-//W3C//DTD SVG 1.1//EN" "http://www.w3.org/Graphics/SVG/1.1/DTD/svg11.dtd">
<svg version="1.1" id="Layer_1" xmlns="http://www.w3.org/2000/svg" xmlns:xlink="http://www.w3.org/1999/xlink" x="0px" y="0px"
	 viewBox="0 0 1159.474 1757.586" enable-background="new 0 0 1159.474 1757.586" xml:space="preserve">
<path d="M364.826,106.056c57.468-5.972,112.281-33.047,170.811-26.146c54.15,3.583,106.574,20.173,160.857,21.899
	c182.245,13.382,133.647,43.748,234.915,85.737c125.115,49.288,167.013,200.642,172.669,335.384
	c2.787,49.903-21.368,95.957-23.491,145.329c-16.295,179.849-4.843,98.741-114.272,271.148
	c-23.89,41.674-72.067,55.079-113.078,73.527c-44.307,121.015,54.097,231.515,54.548,347.993
	c-386.901,63.271-488.413,307.604-717.088,317.865c0.265-19.643,1.062-39.153,1.725-58.662
	c94.419-109.602,265.065-389.279,147.32-473.281c-62.379-3.716-130.331,2.787-186.605-29.331
	c-23.624-23.491-8.361-59.857-15.661-88.79c-9.821-35.702-15.926-72.333-18.846-109.229c38.084-104.732-142.273-1.526-20.74-194.428
	C218.398,533.8,82.65,697.951,169.462,465.729C-41.534,294.345,227.626,119.478,364.826,106.056z"/>
</svg>
